<?xml version="1.0" encoding="UTF-8" standalone="no"?>
<svg
   xmlns:dc="http://purl.org/dc/elements/1.1/"
   xmlns:cc="http://creativecommons.org/ns#"
   xmlns:rdf="http://www.w3.org/1999/02/22-rdf-syntax-ns#"
   xmlns:svg="http://www.w3.org/2000/svg"
   xmlns="http://www.w3.org/2000/svg"
   xmlns:sodipodi="http://sodipodi.sourceforge.net/DTD/sodipodi-0.dtd"
   xmlns:inkscape="http://www.inkscape.org/namespaces/inkscape"
   width="256"
   height="256"
   viewBox="-142.5 -142.5 256 256"
   version="1.1"
   id="svg883"
   sodipodi:docname="first-steps.svg"
   inkscape:version="0.92.5 (2060ec1f9f, 2020-04-08)">
  <metadata
     id="metadata889">
    <rdf:RDF>
      <cc:Work
         rdf:about="">
        <dc:format>image/svg+xml</dc:format>
        <dc:type
           rdf:resource="http://purl.org/dc/dcmitype/StillImage" />
        <dc:title></dc:title>
      </cc:Work>
    </rdf:RDF>
  </metadata>
  <defs
     id="defs887">
    <filter
       style="color-interpolation-filters:sRGB"
       inkscape:label="Drop Shadow"
       id="filter1043">
      <feFlood
         flood-opacity="0.498039"
         flood-color="rgb(0,0,0)"
         result="flood"
         id="feFlood1033" />
      <feComposite
         in="flood"
         in2="SourceGraphic"
         operator="in"
         result="composite1"
         id="feComposite1035" />
      <feGaussianBlur
         in="composite1"
         stdDeviation="6"
         result="blur"
         id="feGaussianBlur1037" />
      <feOffset
         dx="10"
         dy="10"
         result="offset"
         id="feOffset1039" />
      <feComposite
         in="SourceGraphic"
         in2="offset"
         operator="over"
         result="composite2"
         id="feComposite1041" />
    </filter>
  </defs>
  <sodipodi:namedview
     pagecolor="#ffffff"
     bordercolor="#666666"
     borderopacity="1"
     objecttolerance="10"
     gridtolerance="10"
     guidetolerance="10"
     inkscape:pageopacity="0"
     inkscape:pageshadow="2"
     inkscape:window-width="1920"
     inkscape:window-height="1016"
     id="namedview885"
     showgrid="false"
     inkscape:zoom="1.9730807"
     inkscape:cx="111.16288"
     inkscape:cy="115.07362"
     inkscape:window-x="0"
     inkscape:window-y="27"
     inkscape:window-maximized="1"
     inkscape:current-layer="svg883"
     showguides="true"
     inkscape:guide-bbox="true">
    <sodipodi:guide
       position="179.95605,163.83911"
       orientation="0.70710678,0.70710678"
       id="guide2338"
       inkscape:locked="false"
       inkscape:label=""
       inkscape:color="rgb(0,0,255)" />
    <sodipodi:guide
       position="203.33495,154.7362"
       orientation="0.70710678,0.70710678"
       id="guide2340"
       inkscape:locked="false"
       inkscape:label=""
       inkscape:color="rgb(0,0,255)" />
    <sodipodi:guide
       position="220.97712,139.48036"
       orientation="0.70710678,0.70710678"
       id="guide2342"
       inkscape:locked="false"
       inkscape:label=""
       inkscape:color="rgb(0,0,255)" />
    <sodipodi:guide
       position="131.66208,204.20867"
       orientation="0.70710678,0.70710678"
       id="guide2344"
       inkscape:locked="false"
       inkscape:label=""
       inkscape:color="rgb(0,0,255)" />
    <sodipodi:guide
       position="61.6875,191.48047"
       orientation="0.70710678,0.70710678"
       id="guide2346"
       inkscape:locked="false"
       inkscape:label=""
       inkscape:color="rgb(0,0,255)" />
    <sodipodi:guide
       position="91.70343,197.28918"
       orientation="0.70710678,0.70710678"
       id="guide2348"
       inkscape:locked="false"
       inkscape:label=""
       inkscape:color="rgb(0,0,255)" />
    <sodipodi:guide
       position="55.707031,171.15234"
       orientation="0.70710678,0.70710678"
       id="guide2352"
       inkscape:locked="false"
       inkscape:label=""
       inkscape:color="rgb(0,0,255)" />
    <sodipodi:guide
       position="43.268555,175.64941"
       orientation="0.70710678,0.70710678"
       id="guide2354"
       inkscape:locked="false"
       inkscape:label=""
       inkscape:color="rgb(0,0,255)" />
    <sodipodi:guide
       position="38.192871,159.56104"
       orientation="0.70710678,0.70710678"
       id="guide2358"
       inkscape:locked="false"
       inkscape:label=""
       inkscape:color="rgb(0,0,255)" />
    <sodipodi:guide
       position="56.773438,98.554688"
       orientation="0.70710678,0.70710678"
       id="guide2360"
       inkscape:locked="false"
       inkscape:label=""
       inkscape:color="rgb(0,0,255)" />
  </sodipodi:namedview>
  <circle
     style="opacity:1;fill:#dd4814;fill-opacity:1;fill-rule:nonzero;stroke:none;stroke-width:20.91894531;stroke-linecap:round;stroke-miterlimit:4;stroke-dasharray:none;stroke-dashoffset:0;stroke-opacity:1"
     id="path1467"
     cx="-14.5"
     cy="-14.5"
     r="116" />
  <path
     style="fill:#96290e;stroke:none;stroke-width:1px;stroke-linecap:butt;stroke-linejoin:miter;stroke-opacity:1;fill-opacity:1"
     d="M 131.66211 51.791016 L 106.31641 73.322266 L 88.632812 55.640625 L 76.259766 79.091797 L 61.6875 64.519531 L 55.064453 84.205078 L 69.029297 98.169922 L 63.40625 100.48828 L 43.269531 80.351562 L 37.474609 95.720703 L 62.636719 120.88281 L 56.773438 157.44531 L 142.29883 242.9707 A 116 116 0 0 0 243.44922 138.99219 L 220.97656 116.51953 L 220.98242 118.91211 L 203.33398 101.26367 L 198.17773 110.38281 L 179.95508 92.160156 L 172.9668 93.095703 L 131.66211 51.791016 z "
     transform="translate(-142.5,-142.5)"
     id="path3183" />
  <path
     id="path3181"
     d="m -8.9986593,-58.041817 c 25.5697683,0 30.3648943,36.419923 15.98047,36.419923 -14.38234,0 -41.5512717,-36.419923 -15.98047,-36.419923 z m 39.6035183,4.65625 c 14.497642,0.606443 11.636995,25.97762 4.044922,27.111328 -7.588965,1.133438 -18.547741,-27.717319 -4.044922,-27.111328 z m 24.386719,9.716797 c 0.879348,-0.05742 1.859266,0.115163 2.943359,0.5625 11.565741,4.772635 1.754616,24.472554 -4.724609,23.148439 -5.876509,-1.198096 -6.71912,-23.155895 1.78125,-23.710939 z m 18.878906,15.433594 c 1.005581,-0.03384 2.092178,0.300099 3.25,1.099609 9.25841,6.397119 -3.113386,21.8498345 -8.560547,19.4531257 -4.76627,-2.098031 -1.728521,-20.3158457 5.310547,-20.5527347 z m -52.873047,11.82422 c 19.848808,-0.335796 46.03084,9.6222977 50.496094,29.619143 4.83603,21.64003 -19.905528,51.66211 -45.722657,51.66211 -12.700694,0 -27.3510634,-11.46629 -30.0917933,-25.99414 -2.09323,-11.0783 24.6322193,-6.641 23.6718713,0.68945 -1.150546,8.78655 6.445193,13.12727 13.884766,7.46289 C 56.919088,28.997037 -5.9765993,20.000747 -1.8306894,-4.6336125 -0.54021931,-12.30158 9.08815,-16.209479 20.997437,-16.410956 Z"
     style="fill:#ffffff;fill-opacity:1;fill-rule:nonzero;stroke:none;stroke-width:1.03933692;stroke-miterlimit:4"
     inkscape:connector-curvature="0" />
  <path
     style="fill:#ffffff;fill-opacity:1;fill-rule:nonzero;stroke:none;stroke-width:1.03933692;stroke-miterlimit:4"
     d="M 122.49805 48.628906 C 96.928281 48.628906 92.133155 85.048828 106.51758 85.048828 C 120.89992 85.048828 148.06885 48.628906 122.49805 48.628906 z M 82.894531 53.285156 C 68.396889 53.891599 71.257536 79.262776 78.849609 80.396484 C 86.438574 81.529921 97.39735 52.679165 82.894531 53.285156 z M 58.507812 63.001953 C 57.628464 62.944535 56.648546 63.117116 55.564453 63.564453 C 43.998712 68.337088 53.809837 88.037006 60.289062 86.712891 C 66.165571 85.514795 67.008182 63.556997 58.507812 63.001953 z M 39.628906 78.435547 C 38.623325 78.401706 37.536728 78.735646 36.378906 79.535156 C 27.120496 85.932274 39.492292 101.38499 44.939453 98.988281 C 49.705723 96.89025 46.667974 78.672436 39.628906 78.435547 z M 92.501953 90.259766 C 72.653145 89.92397 46.471113 99.882064 42.005859 119.87891 C 37.169829 141.51894 61.911387 171.54102 87.728516 171.54102 C 100.42921 171.54102 115.07958 160.07473 117.82031 145.54688 C 119.91354 134.46858 93.18809 138.90588 94.148438 146.23633 C 95.298984 155.02288 87.703245 159.3636 80.263672 153.69922 C 56.580302 135.66776 119.47599 126.67147 115.33008 102.03711 C 114.03961 94.369142 104.41124 90.461243 92.501953 90.259766 z "
     transform="translate(-142.5,-142.5)"
     id="path3775" />
</svg>
